<?xml version="1.0" encoding="UTF-8" standalone="no"?>
<svg width="36px" height="38px" viewBox="0 0 36 38" version="1.1" xmlns="http://www.w3.org/2000/svg" xmlns:xlink="http://www.w3.org/1999/xlink">
    <!-- Generator: Sketch 3.6.1 (26313) - http://www.bohemiancoding.com/sketch -->
    <title>fb-ico</title>
    <desc>Created with Sketch.</desc>
    <defs></defs>
    <g id="Page-1" stroke="none" stroke-width="1" fill="none" fill-rule="evenodd">
        <g id="Artboard-1" transform="translate(-1070.000000, -3150.000000)" fill="#444444">
            <g id="Group-4" transform="translate(1070.000000, 3149.000000)">
                <g id="fb-ico" transform="translate(0.000000, 1.000000)">
                    <g id="Layer_1">
                        <g id="Group">
                            <path d="M30.7244479,31.69328 L4.61232383,31.69328 L4.61232383,23.27432 L3.59906587,24.39424 L0.0684766889,20.32408 L17.6311976,0.0636 L21.0821275,4.0272 L21.0821275,0.93728 L27.6506138,0.93728 L27.6506138,11.57528 L35.2653061,20.324 L31.7363852,24.3956 L30.7243784,23.27632 L30.7243784,31.69328 L30.7244479,31.69328 Z M6.6398129,29.36112 L28.6962638,29.36112 L28.6962638,17.80056 L31.70587,21.12792 L32.4001432,20.32672 L25.6224296,12.54264 L25.6224296,3.2688 L23.1091995,3.2688 L23.1091995,9.65624 L17.7024461,3.43704 L17.6765882,3.47096 L17.640095,3.42616 L2.93308353,20.32672 L3.62916401,21.12856 L6.6398129,17.80256 L6.6398129,29.36112 L6.6398129,29.36112 Z" id="Shape"></path>
                            <rect id="Rectangle-path" x="11.4329132" y="35.66104" width="13.1661997" height="2.33152"></rect>
                            <path d="M21.7760473,14.78464 L21.7760473,12.56368 C21.5432266,12.53656 20.7359487,12.46736 19.7906384,12.46736 C17.8242369,12.46736 16.4791887,13.62464 16.4791887,15.74792 L16.4791887,17.57808 L14.2538208,17.57808 L14.2538208,20.06024 L16.4791887,20.06024 L16.4791887,26.43072 L19.1360012,26.43072 L19.1360012,20.06024 L21.357966,20.06024 L21.6846621,17.57808 L19.1360842,17.57808 L19.1360842,15.99352 C19.1360012,15.27576 19.3472414,14.78464 20.4163908,14.78464 L21.7760473,14.78464 Z" id="Shape"></path>
                        </g>
                    </g>
                </g>
            </g>
        </g>
    </g>
</svg>