<?xml version="1.0" encoding="UTF-8" standalone="no"?>
<svg width="82px" height="73px" viewBox="0 0 82 73" version="1.1" xmlns="http://www.w3.org/2000/svg" xmlns:xlink="http://www.w3.org/1999/xlink">
    <!-- Generator: Sketch 3.6.1 (26313) - http://www.bohemiancoding.com/sketch -->
    <title>logo-bk</title>
    <desc>Created with Sketch.</desc>
    <defs></defs>
    <g id="Page-1" stroke="none" stroke-width="1" fill="none" fill-rule="evenodd">
        <g id="Artboard-1" transform="translate(-39.000000, -3126.000000)">
            <g id="footer" transform="translate(40.000000, 3125.000000)">
                <g id="logo-bk" transform="translate(0.000000, 3.000000)">
                    <g id="Layer_1">
                        <path d="M0,23.9410628 L40,0.0171497585 L80,23.9410628" id="Shape" stroke="#222222" stroke-width="2"></path>
                        <rect id="Rectangle-path" stroke="#222222" stroke-width="2" x="34.5579399" y="12.2224638" width="10.695279" height="10.6842995"></rect>
                        <g id="Group" transform="translate(3.948498, 30.355072)" fill="#222222">
                            <path d="M8.01716738,0.154347826 L9.33905579,0.154347826 L9.33905579,10.0326087 L7.91416309,10.0326087 L7.91416309,2.34951691 L4.87553648,6.17391304 L4.61802575,6.17391304 L1.54506438,2.34951691 L1.54506438,10.0326087 L0.120171674,10.0326087 L0.120171674,0.154347826 L1.45922747,0.154347826 L4.75536481,4.21884058 L8.01716738,0.154347826 L8.01716738,0.154347826 Z" id="Shape"></path>
                            <path d="M14.6437768,0.102898551 L15.639485,0.102898551 L20.0686695,10.0497585 L18.6266094,10.0497585 L17.304721,7.11714976 L13.0815451,7.11714976 L11.8454936,10.0497585 L10.3862661,10.0497585 L14.6437768,0.102898551 L14.6437768,0.102898551 Z M16.72103,5.84806763 L15.1244635,2.26376812 L13.6480687,5.84806763 L16.72103,5.84806763 L16.72103,5.84806763 Z" id="Shape"></path>
                            <path d="M21.2017167,10.0326087 L21.2017167,0.154347826 L23.6738197,0.154347826 C24.6695279,0.154347826 25.4763948,0.394444444 26.0600858,0.89178744 C26.6437768,1.38913043 26.9356223,2.05797101 26.9356223,2.89830918 C26.9356223,3.48140097 26.7982833,3.97874396 26.5064378,4.39033816 C26.2145923,4.80193237 25.8025751,5.12777778 25.2703863,5.33357488 C25.5793991,5.53937198 25.888412,5.83091787 26.1974249,6.1910628 C26.5064378,6.55120773 26.9184549,7.16859903 27.4678112,8.06038647 C27.8111588,8.6263285 28.0858369,9.03792271 28.2918455,9.3294686 L28.8240343,10.0326087 L27.1416309,10.0326087 L26.7124464,9.38091787 C26.695279,9.36376812 26.6781116,9.31231884 26.6266094,9.26086957 L26.3519313,8.86642512 L25.9055794,8.14613527 L25.4248927,7.37439614 C25.1330472,6.96280193 24.8583691,6.65410628 24.6180258,6.3968599 C24.3776824,6.13961353 24.1545064,5.9852657 23.9656652,5.88236715 C23.776824,5.7794686 23.4334764,5.72801932 22.9699571,5.72801932 L22.6094421,5.72801932 L22.6094421,10.0326087 L21.2017167,10.0326087 L21.2017167,10.0326087 Z M23.0386266,1.35483092 L22.6094421,1.35483092 L22.6094421,4.47608696 L23.1416309,4.47608696 C23.8626609,4.47608696 24.3433476,4.40748792 24.6180258,4.28743961 C24.8927039,4.1673913 25.0987124,3.97874396 25.2360515,3.73864734 C25.3905579,3.49855072 25.4592275,3.20700483 25.4592275,2.89830918 C25.4592275,2.58961353 25.3733906,2.29806763 25.2188841,2.05797101 C25.0472103,1.80072464 24.8240343,1.62922705 24.5150215,1.5263285 C24.223176,1.40628019 23.7253219,1.35483092 23.0386266,1.35483092 L23.0386266,1.35483092 Z" id="Shape"></path>
                            <path d="M35.5193133,0.154347826 L37.2875536,0.154347826 L32.9957082,4.85338164 L38.3347639,10.0497585 L36.3948498,10.0497585 L31.3304721,5.16207729 L31.3304721,10.0497585 L29.9055794,10.0497585 L29.9055794,0.171497585 L31.3304721,0.171497585 L31.3304721,4.69903382 L35.5193133,0.154347826 L35.5193133,0.154347826 Z" id="Shape"></path>
                            <path d="M39.0901288,0.154347826 L44.7038627,0.154347826 L44.7038627,1.40628019 L40.5150215,1.40628019 L40.5150215,4.42463768 L44.5665236,4.42463768 L44.5665236,5.69371981 L40.5150215,5.69371981 L40.5150215,8.76352657 L44.8412017,8.76352657 L44.8412017,10.0154589 L39.0901288,10.0154589 L39.0901288,0.154347826 L39.0901288,0.154347826 Z" id="Shape"></path>
                            <path d="M45.8369099,0.137198068 L54.0944206,0.137198068 L54.0944206,1.38913043 L50.6437768,1.38913043 L50.6437768,10.0326087 L49.2188841,10.0326087 L49.2188841,1.38913043 L45.8369099,1.38913043 L45.8369099,0.137198068 L45.8369099,0.137198068 Z" id="Shape"></path>
                            <path d="M57.1502146,0.102898551 L58.1459227,0.102898551 L62.5751073,10.0497585 L61.1330472,10.0497585 L59.8111588,7.11714976 L55.5879828,7.11714976 L54.3519313,10.0497585 L52.8927039,10.0497585 L57.1502146,0.102898551 L57.1502146,0.102898551 Z M59.2274678,5.84806763 L57.6309013,2.26376812 L56.1545064,5.84806763 L59.2274678,5.84806763 L59.2274678,5.84806763 Z" id="Shape"></path>
                            <path d="M63.27897,3.61859903 L63.27897,3.3442029 C63.4849785,3.1384058 63.639485,2.9326087 63.7253219,2.72681159 C63.8111588,2.52101449 63.8626609,2.24661836 63.8798283,1.88647343 C63.3819742,1.7321256 63.1244635,1.42342995 63.1244635,0.960386473 C63.1244635,0.703140097 63.2103004,0.480193237 63.3819742,0.291545894 C63.5536481,0.102898551 63.7596567,0.0171497585 64,0.0171497585 C64.2918455,0.0171497585 64.5321888,0.137198068 64.7038627,0.394444444 C64.8755365,0.651690821 64.9785408,0.977536232 64.9785408,1.37198068 C64.9785408,1.90362319 64.8240343,2.36666667 64.5321888,2.76111111 C64.223176,3.17270531 63.8111588,3.44710145 63.27897,3.61859903 L63.27897,3.61859903 Z" id="Shape"></path>
                            <path d="M69.304721,5.89951691 L68.223176,5.24782609 C67.5536481,4.83623188 67.0729614,4.42463768 66.7811159,4.03019324 C66.4892704,3.63574879 66.3519313,3.17270531 66.3519313,2.65821256 C66.3519313,1.88647343 66.6266094,1.25193237 67.1587983,0.754589372 C67.6909871,0.274396135 68.3948498,0.0342995169 69.2703863,0.0342995169 C70.0944206,0.0342995169 70.8497854,0.274396135 71.5364807,0.737439614 L71.5364807,2.34951691 C70.8154506,1.66352657 70.0600858,1.3205314 69.2360515,1.3205314 C68.7725322,1.3205314 68.3948498,1.42342995 68.1030043,1.64637681 C67.8111588,1.85217391 67.6566524,2.12657005 67.6566524,2.46956522 C67.6566524,2.76111111 67.7596567,3.03550725 67.9828326,3.30990338 C68.2060086,3.58429952 68.5493562,3.84154589 69.0472103,4.11594203 L70.1287554,4.75048309 C71.3304721,5.47077295 71.9313305,6.37971014 71.9313305,7.49444444 C71.9313305,8.28333333 71.6738197,8.93502415 71.1416309,9.43236715 C70.6094421,9.92971014 69.9227468,10.1698068 69.0643777,10.1698068 C68.0858369,10.1698068 67.193133,9.86111111 66.3862661,9.27801932 L66.3862661,7.47729469 C67.1587983,8.43768116 68.0343348,8.93502415 69.0472103,8.93502415 C69.4935622,8.93502415 69.8540773,8.81497585 70.1630901,8.55772947 C70.4549356,8.31763285 70.6094421,8.0089372 70.6094421,7.63164251 C70.5922747,7.01425121 70.1630901,6.43115942 69.304721,5.89951691 L69.304721,5.89951691 Z" id="Shape"></path>
                        </g>
                        <g id="Group" transform="translate(3.948498, 45.618357)" fill="#222222">
                            <path d="M0.120171674,0.137198068 L5.27038627,0.137198068 C7.96566524,0.137198068 10.0257511,0.703140097 11.416309,1.83502415 C12.806867,2.96690821 13.5107296,4.52753623 13.5107296,6.51690821 C13.5107296,8.90072464 12.3261803,10.7357488 9.95708155,12.0219807 C13.7682403,12.8451691 15.6738197,14.9374396 15.6738197,18.2816425 C15.6738197,20.2881643 14.9356223,21.8830918 13.4420601,23.0664251 C11.9484979,24.2497585 9.92274678,24.85 7.38197425,24.85 L0.120171674,24.85 L0.120171674,0.137198068 L0.120171674,0.137198068 Z M2.02575107,1.7321256 L2.02575107,11.5932367 L4.68669528,11.5932367 C9.18454936,11.5932367 11.4334764,9.9468599 11.4334764,6.67125604 C11.4334764,3.37850242 9.16738197,1.7321256 4.61802575,1.7321256 L2.02575107,1.7321256 L2.02575107,1.7321256 Z M2.02575107,13.1881643 L2.02575107,23.2550725 L7.1416309,23.2550725 C9.25321888,23.2550725 10.8669528,22.8091787 11.9656652,21.9002415 C13.0643777,20.9913043 13.6137339,19.7736715 13.6137339,18.2644928 C13.6137339,14.8859903 11.1759657,13.205314 6.31759657,13.205314 L2.02575107,13.205314 L2.02575107,13.1881643 Z" id="Shape"></path>
                            <path d="M42.1287554,12.5364734 L44.1716738,12.5364734 C43.3991416,14.9545894 42.2660944,17.2869565 40.7553648,19.5335749 L45.8025751,24.85 L43.3476395,24.85 L39.6223176,20.9741546 C37.2017167,23.7695652 34.3690987,25.1586957 31.1072961,25.1586957 C29.167382,25.1586957 27.6051502,24.6270531 26.4206009,23.5466184 C25.2360515,22.4661836 24.6351931,21.0599034 24.6351931,19.310628 C24.6351931,16.0693237 26.6781116,13.5483092 30.7639485,11.7818841 C28.7038627,9.65531401 27.6909871,7.7173913 27.6909871,6.01956522 C27.6909871,4.51038647 28.2575107,3.24130435 29.3905579,2.19516908 C30.5236052,1.14903382 31.9141631,0.634541063 33.5622318,0.634541063 C35.1244635,0.634541063 36.4120172,1.1147343 37.4248927,2.09227053 C38.4377682,3.06980676 38.9527897,4.28743961 38.9527897,5.74516908 C38.9527897,8.35193237 37.2360515,10.5299517 33.8025751,12.2792271 L39.3819742,18.1444444 C40.5321888,16.4466184 41.4420601,14.5772947 42.1287554,12.5364734 L42.1287554,12.5364734 Z M38.3347639,19.6193237 L32.0686695,13.1024155 C30.2317597,13.8913043 28.8755365,14.7487923 28.0171674,15.6748792 C27.1587983,16.6009662 26.7296137,17.7157005 26.7296137,19.0533816 C26.7296137,20.4253623 27.1587983,21.4886473 28,22.2603865 C28.8412017,23.0321256 30.0085837,23.4094203 31.5193133,23.4094203 C33.9914163,23.3922705 36.2575107,22.1403382 38.3347639,19.6193237 L38.3347639,19.6193237 Z M32.583691,10.9415459 C35.6738197,9.65531401 37.2188841,7.97463768 37.2188841,5.89951691 C37.2188841,4.90483092 36.8583691,4.06449275 36.1545064,3.39565217 C35.4506438,2.72681159 34.5579399,2.38381643 33.4763948,2.38381643 C32.360515,2.38381643 31.4334764,2.72681159 30.695279,3.39565217 C29.9399142,4.08164251 29.5793991,4.90483092 29.5793991,5.89951691 C29.5622318,7.42584541 30.5751073,9.10652174 32.583691,10.9415459 L32.583691,10.9415459 Z" id="Shape"></path>
                            <path d="M56.1888412,0.137198068 L61.3390558,0.137198068 C64.0343348,0.137198068 66.0944206,0.703140097 67.4849785,1.83502415 C68.8755365,2.96690821 69.5793991,4.52753623 69.5793991,6.51690821 C69.5793991,8.90072464 68.3948498,10.7357488 66.0257511,12.0219807 C69.8369099,12.8451691 71.7424893,14.9374396 71.7424893,18.2816425 C71.7424893,20.2881643 71.0042918,21.8830918 69.5107296,23.0664251 C68.0171674,24.2497585 65.9914163,24.85 63.4506438,24.85 L56.2060086,24.85 L56.2060086,0.137198068 L56.1888412,0.137198068 Z M58.0944206,1.7321256 L58.0944206,11.5932367 L60.7553648,11.5932367 C65.2532189,11.5932367 67.5021459,9.9468599 67.5021459,6.67125604 C67.5021459,3.37850242 65.2360515,1.7321256 60.6866953,1.7321256 L58.0944206,1.7321256 L58.0944206,1.7321256 Z M58.0944206,13.1881643 L58.0944206,23.2550725 L63.2103004,23.2550725 C65.3218884,23.2550725 66.9356223,22.8091787 68.0343348,21.9002415 C69.1330472,20.9913043 69.6824034,19.7736715 69.6824034,18.2644928 C69.6824034,14.8859903 67.2446352,13.205314 62.3862661,13.205314 L58.0944206,13.205314 L58.0944206,13.1881643 Z" id="Shape"></path>
                        </g>
                    </g>
                </g>
            </g>
        </g>
    </g>
</svg>