<?xml version="1.0" encoding="UTF-8" standalone="no"?>
<svg width="36px" height="38px" viewBox="0 0 36 38" version="1.1" xmlns="http://www.w3.org/2000/svg" xmlns:xlink="http://www.w3.org/1999/xlink">
    <!-- Generator: Sketch 3.6.1 (26313) - http://www.bohemiancoding.com/sketch -->
    <title>tw-ico</title>
    <desc>Created with Sketch.</desc>
    <defs></defs>
    <g id="Page-1" stroke="none" stroke-width="1" fill="none" fill-rule="evenodd">
        <g id="Artboard-1" transform="translate(-1124.000000, -3149.000000)" fill="#444444">
            <g id="Group-4" transform="translate(1070.000000, 3149.000000)">
                <g id="tw-ico" transform="translate(54.000000, 0.000000)">
                    <g id="Layer_1">
                        <g id="Group">
                            <path d="M23.5887165,17.8052447 C23.5887165,17.8052447 21.9434173,15.6178397 20.7422362,15.4558987 C20.7422362,15.4558987 20.7175748,15.4477215 20.6803701,15.4314473 C20.801126,15.2995696 20.9651811,15.2016835 21.2019449,15.2016835 L21.530622,15.1718608 C21.530622,15.1718608 21.099189,14.2527257 19.8391181,15.0820717 C19.8391181,15.0820717 19.6371496,14.2527257 20.3451024,13.9848017 C20.3451024,13.9848017 19.5350315,13.2710591 18.4762205,15.0235485 C18.4762205,15.0235485 18.1975039,14.5476667 18.4270394,14.1330338 C18.4270394,14.1330338 17.787685,14.2228228 17.7720236,15.8800717 C17.3496614,16.162827 16.9151102,16.5639114 16.4932441,17.1349536 C16.4651102,17.1730338 16.3563307,17.3524515 16.2758268,17.5277806 C16.043315,18.0267511 15.4465512,19.3360675 14.6894173,20.3000169 C13.5693071,21.3726751 12.3584882,20.7635527 12.1439764,20.6493122 C11.2041496,20.1557932 12.0015354,21.4663924 13.2280157,22.3366245 C13.2808819,22.4263333 13.3421811,22.528308 13.4233228,22.6342911 C13.4233228,22.6342911 14.9189528,24.5010211 17.4956457,24.9089198 C20.1180472,25.3221899 21.6238819,24.067308 22.3630866,23.2720338 C22.6916929,22.9238608 23.5948819,21.500384 23.6537717,19.2299241 L24.2685354,18.1939831 L23.5887165,17.8052447 L23.5887165,17.8052447 Z M20.9628425,18.6155907 C20.5122047,18.6155907 20.146252,18.209135 20.146252,17.7087215 C20.146252,17.2084684 20.5122047,16.8046582 20.9628425,16.8046582 C21.4188661,16.8046582 21.7848898,17.2084684 21.7848898,17.7087215 C21.7848189,18.209135 21.4187953,18.6155907 20.9628425,18.6155907 L20.9628425,18.6155907 Z" id="Shape"></path>
                            <path d="M31.3104331,31.6851857 L4.69268504,31.6851857 L4.69268504,23.2490253 L3.65789764,24.3706667 L0.0591023622,20.2919198 L18.0549921,0.0016835443 L19.0464803,1.20758228 L21.4818661,3.9607384 L21.4818661,0.865021097 L28.1784331,0.865021097 L28.1784331,11.5254641 L35.9408976,20.292 L32.3451496,24.3721097 L31.3103622,23.2491055 L31.3103622,31.6851857 L31.3104331,31.6851857 Z M6.7585748,29.3480253 L29.2445433,29.3480253 L29.2445433,17.7658017 L32.3127638,21.098097 L33.0200079,20.2946456 L26.1125433,12.4947848 L26.1125433,3.2007384 L23.5479685,3.2007384 L23.5479685,9.60165401 L18.0003543,3.32852743 L2.98013386,20.2946456 L3.68914961,21.098097 L6.7585748,17.7658017 L6.7585748,29.3480253 L6.7585748,29.3480253 Z" id="Shape"></path>
                            <rect id="Rectangle-path" x="11.3794646" y="35.6619578" width="13.2399998" height="2.33579747"></rect>
                        </g>
                    </g>
                </g>
            </g>
        </g>
    </g>
</svg>